Coordinates
version=1
nRows=26
nColumns=22
inDegrees=yes

Units are S.I. units (second, meters, Newtons, ...)
If the header above contains a line with 'inDegrees', this indicates whether rotational values are in degrees (yes) or radians (no).

endheader
time	pelvis_tilt	pelvis_list	pelvis_rotation	pelvis_tx	pelvis_ty	pelvis_tz	hip_flexion_r	hip_adduction_r	hip_rotation_r	knee_angle_r	ankle_angle_r	subtalar_angle_r	hip_flexion_l	hip_adduction_l	hip_rotation_l	knee_angle_l	ankle_angle_l	subtalar_angle_l	lumbar_extension	lumbar_bending	lumbar_rotation
      0.01000000	     -4.35739859	     -3.59593804	     -5.85567896	     -1.16888692	      0.95558436	      0.05006990	      8.02715925	      5.15962272	      0.35296222	    -14.68575565	     11.15983021	     -3.80095018	      9.35955823	     -5.79171645	     -6.80966409	    -21.25680632	     14.14186908	     -2.98746099	     -2.67759256	      2.69002849	     -0.06416999
      0.02000000	     -4.35844854	     -3.59173178	     -5.86724408	     -1.16895682	      0.95558378	      0.05013644	      8.03111628	      5.15867127	      0.34859127	    -14.68177830	     11.15682231	     -3.80324248	      9.36442810	     -5.79136717	     -6.81206825	    -21.25735716	     14.14351560	     -2.98797512	     -2.68719007	      2.68772716	     -0.06480791
      0.03000000	     -4.35494540	     -3.58492566	     -5.87548011	     -1.16903990	      0.95557995	      0.05020495	      8.03398182	      5.15376111	      0.33653093	    -14.68282946	     11.13592133	     -3.82282231	      9.38485125	     -5.79382785	     -6.84049713	    -21.29221615	     14.15249108	     -2.99397677	     -2.70302419	      2.68115736	     -0.05790437
      0.04000000	     -4.35594967	     -3.58274762	     -5.88504961	     -1.16910304	      0.95557792	      0.05028371	      8.03673689	      5.15548307	      0.33554539	    -14.67865171	     11.13620411	     -3.82500135	      9.39000986	     -5.79616023	     -6.84007145	    -21.29439313	     14.15272504	     -2.99451401	     -2.71087047	      2.68310136	     -0.06159535
      0.05000000	     -4.35977450	     -3.60264440	     -5.88583366	     -1.16919064	      0.95555454	      0.05036985	      8.03655255	      5.18412471	      0.35414080	    -14.66727205	     11.13210170	     -3.86569449	      9.42548560	     -5.83050318	     -6.85403433	    -21.34494585	     14.16298941	     -3.00652035	     -2.72025025	      2.71049226	     -0.07700223
      0.06000000	     -4.35949517	     -3.59904109	     -5.89096061	     -1.16925856	      0.95554837	      0.05045494	      8.03955598	      5.18480451	      0.35551690	    -14.66483766	     11.13159526	     -3.86696101	      9.43076807	     -5.83185944	     -6.85211925	    -21.34772249	     14.16317771	     -3.00679076	     -2.73045184	      2.70984385	     -0.07927008
      0.07000000	     -4.34816787	     -3.59601666	     -5.89170000	     -1.16935550	      0.95554653	      0.05053573	      8.03761044	      5.18691419	      0.38071624	    -14.67486481	     11.13043659	     -3.87390748	      9.44507418	     -5.83473252	     -6.84680051	    -21.38591577	     14.16200417	     -3.00767188	     -2.75662026	      2.70869617	     -0.08944951
      0.08000000	     -4.34760556	     -3.59340292	     -5.89475794	     -1.16942802	      0.95554061	      0.05062521	      8.04085263	      5.18972404	      0.38391126	    -14.67262209	     11.13149612	     -3.87526766	      9.44970249	     -5.83788783	     -6.84623536	    -21.38717081	     14.16196550	     -3.00762598	     -2.76667954	      2.70831952	     -0.09201832
      0.09000000	     -4.33554038	     -3.59491497	     -5.89709570	     -1.16953446	      0.95554166	      0.05071410	      8.04114251	      5.19865088	      0.41729387	    -14.68829184	     11.13546819	     -3.88318122	      9.45983087	     -5.84681003	     -6.84415305	    -21.41980102	     14.15855543	     -3.00582836	     -2.79433626	      2.71224608	     -0.10406744
      0.10000000	     -4.32944777	     -3.59809205	     -5.90237965	     -1.16963321	      0.95554208	      0.05080928	      8.04333178	      5.21020204	      0.44186930	    -14.69550927	     11.13916147	     -3.89361950	      9.46678541	     -5.85821049	     -6.84774003	    -21.43622562	     14.15729623	     -3.00226445	     -2.81393687	      2.71784485	     -0.10645563
      0.11000000	     -4.32879380	     -3.59547058	     -5.90601790	     -1.16971694	      0.95554204	      0.05089538	      8.04743285	      5.21353065	      0.44371100	    -14.69359123	     11.13937782	     -3.89499998	      9.47052374	     -5.86135550	     -6.84786388	    -21.43552368	     14.15735987	     -3.00167885	     -2.82280099	      2.71718879	     -0.10771265
      0.12000000	     -4.31969103	     -3.59815659	     -5.91236982	     -1.16983736	      0.95555002	      0.05098384	      8.05391634	      5.22423257	      0.46814477	    -14.71266956	     11.13767453	     -3.90403807	      9.47724355	     -5.87191612	     -6.85065701	    -21.45595731	     14.15400664	     -2.99674053	     -2.84704487	      2.72185095	     -0.11255027
      0.13000000	     -4.31928501	     -3.59576485	     -5.91575739	     -1.16993165	      0.95555188	      0.05106229	      8.05836464	      5.22748703	      0.46940101	    -14.70990993	     11.13798969	     -3.90549647	      9.48152655	     -5.87510328	     -6.85136730	    -21.45465332	     14.15402498	     -2.99600839	     -2.85591385	      2.72131184	     -0.11303756
      0.14000000	     -4.31173523	     -3.59926391	     -5.92256512	     -1.17006060	      0.95555891	      0.05114451	      8.06439770	      5.23846296	      0.49181972	    -14.72449819	     11.13624219	     -3.91666216	      9.49122994	     -5.88735635	     -6.85836432	    -21.47626393	     14.14996604	     -2.98954222	     -2.87888706	      2.72658266	     -0.11317461
      0.15000000	     -4.31143113	     -3.59711454	     -5.92560600	     -1.17016342	      0.95556315	      0.05121124	      8.06829437	      5.24085949	      0.49255129	    -14.72075183	     11.13652901	     -3.91811668	      9.49633699	     -5.89017909	     -6.85921728	    -21.47433794	     14.15009131	     -2.98878748	     -2.88727737	      2.72617642	     -0.11325296
      0.16000000	     -4.30479816	     -3.60002560	     -5.92984513	     -1.17029926	      0.95556972	      0.05127915	      8.07018283	      5.24982718	      0.51182421	    -14.72543498	     11.13456541	     -3.92945718	      9.51081361	     -5.90107772	     -6.86509207	    -21.50001593	     14.14565618	     -2.98177738	     -2.90914159	      2.73016068	     -0.10990134
      0.17000000	     -4.30441517	     -3.59826213	     -5.93237976	     -1.17040630	      0.95557481	      0.05133722	      8.07376757	      5.25166365	      0.51213687	    -14.72101472	     11.13469025	     -3.93074791	      9.51640693	     -5.90373179	     -6.86559451	    -21.49807398	     14.14576382	     -2.98104303	     -2.91742000	      2.73037081	     -0.10993739
      0.18000000	     -4.29872641	     -3.60225847	     -5.93333447	     -1.17054047	      0.95558079	      0.05139103	      8.07169715	      5.26014558	      0.52281316	    -14.71582346	     11.13010652	     -3.93933309	      9.53478298	     -5.91430491	     -6.86658279	    -21.52768052	     14.14108001	     -2.97501705	     -2.93670118	      2.73568086	     -0.10346774
      0.19000000	     -4.29831895	     -3.60125362	     -5.93625832	     -1.17065079	      0.95558555	      0.05144490	      8.07516612	      5.26201478	      0.52213422	    -14.71049726	     11.12950734	     -3.94037511	      9.54144766	     -5.91746739	     -6.86650458	    -21.52648082	     14.14106651	     -2.97432086	     -2.94541770	      2.73639402	     -0.10360115
      0.20000000	     -4.29998137	     -3.62467440	     -5.92921702	     -1.17078277	      0.95558354	      0.05149437	      8.07203498	      5.29081837	      0.52238312	    -14.69029061	     11.10175323	     -3.95745059	      9.57518533	     -5.95233284	     -6.86801047	    -21.56919113	     14.14000420	     -2.96176546	     -2.95692908	      2.76385277	     -0.10431825
      0.21000000	     -4.29923943	     -3.62273578	     -5.93527700	     -1.17088582	      0.95558813	      0.05154268	      8.07493135	      5.29129414	      0.51933460	    -14.68366676	     11.10064497	     -3.95814816	      9.58188569	     -5.95298915	     -6.86561513	    -21.57094408	     14.14039269	     -2.96131580	     -2.96454470	      2.76485362	     -0.10255375
      0.22000000	     -4.29637843	     -3.62555607	     -5.93423920	     -1.17099105	      0.95559206	      0.05157869	      8.06921077	      5.29500323	      0.50683095	    -14.66538234	     11.08716891	     -3.96073389	      9.60406857	     -5.95946463	     -6.85506399	    -21.60469777	     14.13833330	     -2.95883490	     -2.97405456	      2.76847162	     -0.08244007
      0.23000000	     -4.29712540	     -3.63706936	     -5.93027380	     -1.17109156	      0.95559242	      0.05161320	      8.06479659	      5.30821600	      0.49084986	    -14.64376819	     11.06525927	     -3.96404460	      9.62811893	     -5.97603216	     -6.84548405	    -21.63456020	     14.13673701	     -2.95602535	     -2.98003735	      2.78335970	     -0.07623413
      0.24000000	     -4.29898337	     -3.64847091	     -5.92511748	     -1.17118114	      0.95559424	      0.05164549	      8.06107044	      5.32169220	      0.47666309	    -14.62269487	     11.04578057	     -3.96746333	      9.64742688	     -5.99150011	     -6.83420098	    -21.65480017	     14.14017209	     -2.95565865	     -2.98262033	      2.79793249	     -0.07264824
      0.25000000	     -4.29745072	     -3.65347190	     -5.92429609	     -1.17126481	      0.95559820	      0.05167845	      8.05639297	      5.32813575	      0.46749092	    -14.60675406	     11.03515473	     -3.96962399	      9.66025331	     -5.99896145	     -6.82571155	    -21.67105213	     14.14178310	     -2.95689450	     -2.98737057	      2.80467536	     -0.06451111
      0.26000000	     -4.29455029	     -3.65661120	     -5.92488221	     -1.17134087	      0.95560394	      0.05171110	      8.04946603	      5.33300124	      0.46085058	    -14.59133341	     11.02743506	     -3.97109714	      9.66971270	     -6.00425827	     -6.81858891	    -21.68529331	     14.14219426	     -2.95894614	     -2.99269971	      2.80918914	     -0.05308870
